<?xml version="1.0" encoding="UTF-8" standalone="no"?>
<svg
   width="30.48mm"
   height="128.5mm"
   viewBox="0 0 30.48 128.5"
   version="1.1"
   id="svg8"
   xmlns="http://www.w3.org/2000/svg"
   xmlns:svg="http://www.w3.org/2000/svg">
  <defs
     id="defs8" />
  <rect
     x="0"
     y="0"
     width="30.48"
     height="128.5"
     fill="#202020"
     id="rect1" />
  <path
     d="m 9.0241795,10.789063 q -0.1074219,0.04687 -0.1953125,0.08789 -0.085937,0.04102 -0.2265625,0.08594 -0.1191407,0.03711 -0.2597657,0.0625 -0.1386718,0.02734 -0.3066406,0.02734 -0.3164062,0 -0.5761719,-0.08789 Q 7.2019138,10.875 7.0105076,10.685547 6.8230076,10.5 6.7175388,10.214844 6.6120701,9.9277344 6.6120701,9.5488281 q 0,-0.359375 0.1015625,-0.6425781 Q 6.8151951,8.6230469 7.0066013,8.4277344 7.1921482,8.2382813 7.453867,8.1386719 q 0.2636718,-0.099609 0.5839843,-0.099609 0.234375,0 0.4667969,0.056641 0.234375,0.056641 0.5195313,0.1992188 V 8.7539063 H 8.9948826 Q 8.7546482,8.5527344 8.5183201,8.4609375 8.281992,8.3691406 8.0124607,8.3691406 q -0.2207031,0 -0.3984375,0.072266 -0.1757812,0.070312 -0.3144531,0.2207031 -0.1347656,0.1464844 -0.2109375,0.3710937 -0.074219,0.2226563 -0.074219,0.515625 0,0.3066407 0.082031,0.5273439 0.083984,0.220703 0.2148437,0.359375 0.1367188,0.144531 0.3183594,0.214844 0.1835938,0.06836 0.3867188,0.06836 0.2792968,0 0.5234375,-0.0957 0.2441406,-0.0957 0.4570312,-0.287109 h 0.027344 z M 11.401133,9.9101563 q 0,0.5332027 -0.273438,0.8417967 -0.273437,0.308594 -0.732422,0.308594 -0.4628904,0 -0.7363279,-0.308594 -0.2714844,-0.308594 -0.2714844,-0.8417967 0,-0.5332032 0.2714844,-0.8417969 0.2734375,-0.3105469 0.7363279,-0.3105469 0.458985,0 0.732422,0.3105469 0.273438,0.3085937 0.273438,0.8417969 z m -0.378907,0 q 0,-0.4238282 -0.166015,-0.6289063 -0.166016,-0.2070312 -0.460938,-0.2070312 -0.298828,0 -0.4648435,0.2070312 -0.1640625,0.2050781 -0.1640625,0.6289063 0,0.4101567 0.1660156,0.6230467 0.1660154,0.210938 0.4628904,0.210938 0.292969,0 0.458985,-0.208985 0.167968,-0.210937 0.167968,-0.6249997 z M 12.340586,11 H 11.973398 V 7.9609375 h 0.367188 z m 2.585937,-1.0898437 q 0,0.5332027 -0.273437,0.8417967 -0.273438,0.308594 -0.732422,0.308594 -0.462891,0 -0.736328,-0.308594 -0.271485,-0.308594 -0.271485,-0.8417967 0,-0.5332032 0.271485,-0.8417969 0.273437,-0.3105469 0.736328,-0.3105469 0.458984,0 0.732422,0.3105469 0.273437,0.3085937 0.273437,0.8417969 z m -0.378906,0 q 0,-0.4238282 -0.166016,-0.6289063 -0.166015,-0.2070312 -0.460937,-0.2070312 -0.298828,0 -0.464844,0.2070312 -0.164062,0.2050781 -0.164062,0.6289063 0,0.4101567 0.166015,0.6230467 0.166016,0.210938 0.462891,0.210938 0.292969,0 0.458984,-0.208985 0.167969,-0.210937 0.167969,-0.6249997 z M 16.856211,9.21875 h -0.01953 q -0.08203,-0.019531 -0.160156,-0.027344 -0.07617,-0.00977 -0.18164,-0.00977 -0.169922,0 -0.328125,0.076172 -0.158204,0.074219 -0.304688,0.1933594 V 11 H 15.494883 V 8.8183594 H 15.86207 V 9.140625 q 0.21875,-0.1757812 0.384766,-0.2480469 0.167968,-0.074219 0.341797,-0.074219 0.0957,0 0.138671,0.00586 0.04297,0.00391 0.128907,0.017578 z M 18.826914,11 h -0.365235 v -0.232422 q -0.04883,0.0332 -0.132812,0.09375 -0.08203,0.05859 -0.160156,0.09375 -0.0918,0.04492 -0.210938,0.07422 -0.11914,0.03125 -0.279297,0.03125 -0.294922,0 -0.5,-0.195313 -0.205078,-0.195312 -0.205078,-0.498046 0,-0.248047 0.105469,-0.4003911 0.107422,-0.1542969 0.304687,-0.2421875 0.199219,-0.087891 0.478516,-0.1191406 0.279297,-0.03125 0.599609,-0.046875 v -0.056641 q 0,-0.125 -0.04492,-0.2070312 -0.04297,-0.082031 -0.125,-0.1289063 -0.07813,-0.044922 -0.1875,-0.060547 -0.109375,-0.015625 -0.228516,-0.015625 -0.144531,0 -0.322266,0.039063 -0.177734,0.037109 -0.367187,0.109375 h -0.01953 V 8.8652344 q 0.107421,-0.029297 0.310546,-0.064453 0.203125,-0.035156 0.400391,-0.035156 0.230469,0 0.400391,0.039063 0.171875,0.037109 0.296875,0.1289063 0.123047,0.089844 0.1875,0.2324218 0.06445,0.1425782 0.06445,0.3535157 z M 18.461679,10.462891 V 9.8554688 q -0.167968,0.00977 -0.396484,0.029297 -0.226562,0.019531 -0.359375,0.056641 -0.158203,0.044922 -0.255859,0.1406247 -0.09766,0.09375 -0.09766,0.259766 0,0.1875 0.113282,0.283203 0.113281,0.09375 0.345703,0.09375 0.193359,0 0.353515,-0.07422 0.160157,-0.07617 0.296875,-0.18164 z M 21.303476,11 h -0.367187 v -0.228516 q -0.158203,0.136719 -0.330078,0.212891 -0.171875,0.07617 -0.373047,0.07617 -0.390625,0 -0.621094,-0.300781 -0.228516,-0.300782 -0.228516,-0.8339847 0,-0.2773438 0.07813,-0.4941407 0.08008,-0.2167968 0.214844,-0.3691406 0.132813,-0.1484375 0.308594,-0.2265625 0.177734,-0.078125 0.367187,-0.078125 0.171875,0 0.304688,0.037109 0.132812,0.035156 0.279297,0.1113281 V 7.9609375 h 0.367187 z M 20.936289,10.462891 V 9.2109375 Q 20.787851,9.1445313 20.670664,9.1191406 20.553476,9.09375 20.414804,9.09375 q -0.308593,0 -0.480468,0.2148438 -0.171875,0.2148437 -0.171875,0.609375 0,0.3886722 0.132812,0.5917972 0.132813,0.201172 0.425781,0.201172 0.15625,0 0.316407,-0.06836 0.160156,-0.07031 0.298828,-0.179687 z m 2.949219,-0.5527347 q 0,0.5332027 -0.273438,0.8417967 -0.273437,0.308594 -0.732422,0.308594 -0.46289,0 -0.736328,-0.308594 -0.271484,-0.308594 -0.271484,-0.8417967 0,-0.5332032 0.271484,-0.8417969 0.273438,-0.3105469 0.736328,-0.3105469 0.458985,0 0.732422,0.3105469 0.273438,0.3085937 0.273438,0.8417969 z m -0.378907,0 q 0,-0.4238282 -0.166015,-0.6289063 -0.166016,-0.2070312 -0.460938,-0.2070312 -0.298828,0 -0.464844,0.2070312 -0.164062,0.2050781 -0.164062,0.6289063 0,0.4101567 0.166016,0.6230467 0.166015,0.210938 0.46289,0.210938 0.292969,0 0.458985,-0.208985 0.167968,-0.210937 0.167968,-0.6249997 z"
     id="text1"
     style="font-size:4px;text-anchor:middle;fill:#ffffff"
     aria-label="Colorado" />
  <path
     d="M 13.737705,14.589551 H 13.16622 V 16 h -0.212695 v -1.410449 h -0.571484 v -0.189063 h 1.355664 z m 0.732617,0.430761 h -0.01074 q -0.04512,-0.01074 -0.08809,-0.01504 -0.0419,-0.0054 -0.0999,-0.0054 -0.09346,0 -0.180469,0.0419 -0.08701,0.04082 -0.167578,0.106348 V 16 h -0.201953 v -1.199902 h 0.201953 v 0.177246 q 0.120312,-0.09668 0.211621,-0.136426 0.09238,-0.04082 0.187988,-0.04082 0.05264,0 0.07627,0.0032 0.02363,0.0021 0.0709,0.0097 z M 15.554209,16 H 15.35333 v -0.127832 q -0.02686,0.01826 -0.07305,0.05156 -0.04512,0.03223 -0.08809,0.05156 -0.05049,0.02471 -0.116016,0.04082 -0.06553,0.01719 -0.153613,0.01719 -0.162207,0 -0.275,-0.107422 -0.112793,-0.107422 -0.112793,-0.273926 0,-0.136426 0.05801,-0.220215 0.05908,-0.08486 0.167578,-0.133203 0.10957,-0.04834 0.263184,-0.06553 0.153613,-0.01719 0.329785,-0.02578 v -0.03115 q 0,-0.06875 -0.02471,-0.113867 -0.02363,-0.04512 -0.06875,-0.0709 -0.04297,-0.02471 -0.103125,-0.0333 -0.06016,-0.0086 -0.125684,-0.0086 -0.07949,0 -0.177246,0.02148 -0.09775,0.02041 -0.201953,0.06016 h -0.01074 v -0.205176 q 0.05908,-0.01611 0.170801,-0.03545 0.111718,-0.01934 0.220214,-0.01934 0.126758,0 0.220215,0.02148 0.09453,0.02041 0.163281,0.0709 0.06768,0.04941 0.103125,0.127832 0.03545,0.07842 0.03545,0.194433 z M 15.35333,15.70459 v -0.334082 q -0.09238,0.0054 -0.218067,0.01611 -0.124609,0.01074 -0.197656,0.03115 -0.08701,0.02471 -0.140723,0.07734 -0.05371,0.05156 -0.05371,0.142871 0,0.103125 0.0623,0.155762 0.0623,0.05156 0.190137,0.05156 0.106348,0 0.194434,-0.04082 0.08808,-0.04189 0.163281,-0.0999 z m 0.806738,-1.105371 h -0.227734 v -0.209473 h 0.227734 z M 16.147178,16 h -0.201953 v -1.199902 h 0.201953 z m 0.603711,0 h -0.201954 v -1.671484 h 0.201954 z m 1.256836,-0.345898 q 0,0.164355 -0.136426,0.269628 -0.135352,0.105274 -0.370606,0.105274 -0.133203,0 -0.244921,-0.03115 -0.110645,-0.03223 -0.18584,-0.06982 v -0.22666 h 0.01074 q 0.09561,0.07197 0.212695,0.114942 0.11709,0.04189 0.224512,0.04189 0.133203,0 0.208398,-0.04297 0.0752,-0.04297 0.0752,-0.135351 0,-0.0709 -0.04082,-0.107422 -0.04082,-0.03652 -0.156836,-0.06231 -0.04297,-0.0097 -0.112793,-0.02256 -0.06875,-0.01289 -0.125683,-0.02793 -0.15791,-0.0419 -0.224512,-0.122461 -0.06553,-0.08164 -0.06553,-0.199805 0,-0.07412 0.03008,-0.139648 0.03115,-0.06553 0.09346,-0.11709 0.06016,-0.05049 0.152539,-0.07949 0.09346,-0.03008 0.208398,-0.03008 0.107422,0 0.216993,0.02685 0.110644,0.02578 0.183691,0.06338 v 0.215918 h -0.01074 q -0.07734,-0.05693 -0.187988,-0.09561 -0.110645,-0.03975 -0.216993,-0.03975 -0.110644,0 -0.186914,0.04297 -0.07627,0.04189 -0.07627,0.125684 0,0.07412 0.04619,0.111719 0.04512,0.0376 0.146094,0.06123 0.05586,0.01289 0.124609,0.02578 0.06983,0.01289 0.116016,0.02363 0.140723,0.03223 0.216992,0.110645 0.07627,0.07949 0.07627,0.210547 z"
     id="text2"
     style="font-size:2.2px;text-anchor:middle;fill:#9cff9c"
     aria-label="Trails" />
  <!-- Trail display frame -->
  <rect
     x="3.7"
     y="17.7"
     width="23.08"
     height="18.6"
     rx="1.2"
     ry="1.2"
     fill="none"
     stroke="#606060"
     stroke-width="0.4"
     id="rect2" />
  <path
     d="m 13.776987,39 h -0.313721 l -0.60791,-0.722656 H 12.51478 V 39 h -0.241699 v -1.817627 h 0.509033 q 0.164795,0 0.274658,0.02197 0.109864,0.02075 0.197754,0.07568 0.09888,0.06226 0.153809,0.157471 0.05615,0.09399 0.05615,0.239258 0,0.196533 -0.09888,0.32959 -0.09888,0.131836 -0.272217,0.198974 z m -0.565185,-1.306152 q 0,-0.07813 -0.02808,-0.13794 -0.02686,-0.06104 -0.09033,-0.102539 -0.05249,-0.0354 -0.124511,-0.04883 -0.07202,-0.01465 -0.169678,-0.01465 H 12.51478 v 0.686035 h 0.244141 q 0.114746,0 0.200195,-0.01953 0.08545,-0.02075 0.145264,-0.07568 0.05493,-0.05127 0.08057,-0.117188 0.02686,-0.06714 0.02686,-0.169677 z M 15.444468,39 H 15.186899 L 15.008677,38.493408 H 14.222544 L 14.044321,39 H 13.79896 l 0.661621,-1.817627 h 0.322265 z m -0.510254,-0.714111 -0.318604,-0.892334 -0.319824,0.892334 z m 1.936035,-0.888672 H 16.220835 V 39 h -0.241699 v -1.602783 h -0.649415 v -0.214844 h 1.540528 z M 18.311899,39 h -1.19751 v -1.817627 h 1.19751 v 0.214844 h -0.95581 v 0.498047 h 0.95581 v 0.214843 h -0.95581 v 0.675049 h 0.95581 z"
     id="text3"
     style="font-size:2.5px;text-anchor:middle;fill:#ffffff"
     aria-label="RATE" />
  <path
     d="M 9.3431245,54 H 8.2392182 v -1.744922 h 0.2320313 v 1.538672 h 0.871875 z M 10.8525,52.455469 q 0.10664,0.117187 0.16289,0.287109 0.05742,0.169922 0.05742,0.385547 0,0.215625 -0.05859,0.386719 -0.05742,0.169922 -0.161718,0.283593 -0.107813,0.11836 -0.255469,0.178125 -0.146485,0.05977 -0.335156,0.05977 -0.183985,0 -0.3351567,-0.06094 -0.15,-0.06094 -0.2554688,-0.176954 -0.1054688,-0.116015 -0.1628906,-0.284765 -0.05625,-0.16875 -0.05625,-0.385547 0,-0.213281 0.05625,-0.382031 0.05625,-0.169922 0.1640625,-0.290625 0.103125,-0.114844 0.2554687,-0.175782 0.1535159,-0.06094 0.3339849,-0.06094 0.1875,0 0.336328,0.06211 0.15,0.06094 0.254297,0.17461 z m -0.02109,0.672656 q 0,-0.339844 -0.152344,-0.523828 -0.152344,-0.185156 -0.416016,-0.185156 -0.2660152,0 -0.418359,0.185156 -0.1511719,0.183984 -0.1511719,0.523828 0,0.343359 0.1546875,0.526172 0.1546874,0.18164 0.4148434,0.18164 0.260157,0 0.413672,-0.18164 0.154688,-0.182813 0.154688,-0.526172 z M 12.772031,54 h -0.28711 L 11.657578,52.439062 V 54 h -0.216797 v -1.744922 h 0.359765 l 0.754688,1.425 v -1.425 h 0.216797 z m 1.919531,-0.128906 q -0.142969,0.06562 -0.312891,0.114843 -0.16875,0.04805 -0.326953,0.04805 -0.203906,0 -0.373828,-0.05625 -0.169922,-0.05625 -0.289453,-0.16875 -0.120703,-0.113672 -0.186328,-0.283593 -0.06563,-0.171094 -0.06563,-0.39961 0,-0.418359 0.24375,-0.659765 0.244922,-0.242579 0.671484,-0.242579 0.148828,0 0.303516,0.03633 0.155859,0.03516 0.335156,0.120703 v 0.27539 h -0.02109 q -0.03633,-0.02813 -0.105469,-0.07383 -0.06914,-0.0457 -0.135937,-0.07617 -0.08086,-0.03633 -0.183984,-0.05976 -0.101954,-0.02461 -0.232032,-0.02461 -0.292968,0 -0.464062,0.188672 -0.169922,0.1875 -0.169922,0.508594 0,0.338672 0.178125,0.527344 0.178125,0.1875 0.485156,0.1875 0.1125,0 0.223828,-0.02227 0.1125,-0.02227 0.196875,-0.05742 v -0.427734 h -0.467578 v -0.203906 h 0.697266 z M 15.712266,54 h -0.689063 v -0.178125 h 0.228516 v -1.388672 h -0.228516 v -0.178125 h 0.689063 v 0.178125 H 15.48375 v 1.388672 h 0.228516 z m 1.639453,-1.538672 H 16.728281 V 54 H 16.49625 v -1.538672 h -0.623438 v -0.20625 h 1.478907 z m 1.548046,0.837891 q 0,0.189843 -0.04219,0.33164 -0.04102,0.140625 -0.135938,0.234375 -0.09023,0.08906 -0.210937,0.130078 -0.120703,0.04102 -0.28125,0.04102 -0.164063,0 -0.285938,-0.04336 -0.121875,-0.04336 -0.205078,-0.127735 -0.09492,-0.09609 -0.137109,-0.232031 -0.04102,-0.135937 -0.04102,-0.333984 v -1.044141 h 0.232031 v 1.055859 q 0,0.141797 0.01875,0.223829 0.01992,0.08203 0.06563,0.148828 0.05156,0.07617 0.139454,0.114843 0.08906,0.03867 0.213281,0.03867 0.12539,0 0.213281,-0.0375 0.08789,-0.03867 0.140625,-0.116015 0.0457,-0.0668 0.06445,-0.152344 0.01992,-0.08672 0.01992,-0.214453 v -1.061719 h 0.232031 z m 1.917188,-0.169922 q 0,0.23789 -0.104297,0.43125 -0.103125,0.193359 -0.275391,0.3 -0.119531,0.07383 -0.267187,0.10664 Q 20.023593,54 19.783359,54 h -0.440625 v -1.744922 h 0.435937 q 0.255469,0 0.405469,0.0375 0.151172,0.03633 0.255469,0.100781 0.178125,0.111328 0.277734,0.296485 0.09961,0.185156 0.09961,0.439453 z m -0.242578,-0.0035 q 0,-0.205078 -0.07148,-0.345703 -0.07148,-0.140625 -0.213281,-0.221484 -0.103125,-0.05859 -0.219141,-0.08086 -0.116015,-0.02344 -0.277734,-0.02344 h -0.217969 v 1.346484 h 0.217969 q 0.167578,0 0.291797,-0.02461 0.12539,-0.02461 0.229687,-0.09141 0.130078,-0.0832 0.194532,-0.219141 0.06563,-0.135938 0.06563,-0.339844 z M 22.341563,54 h -1.14961 v -1.744922 h 1.14961 v 0.20625 h -0.917579 v 0.478125 h 0.917579 v 0.20625 h -0.917579 v 0.648047 h 0.917579 z"
     id="text4"
     style="font-size:2.4px;text-anchor:middle;fill:#ffffff"
     aria-label="LONGITUDE" />
  <path
     d="M 10.614609,69 H 9.5107027 v -1.744922 h 0.2320312 v 1.538672 h 0.8718751 z m 1.607812,0 H 11.975156 L 11.804062,68.513672 H 11.049375 L 10.878281,69 h -0.235547 l 0.635156,-1.744922 h 0.309375 z m -0.489843,-0.685547 -0.30586,-0.856641 -0.307031,0.856641 z m 1.858593,-0.853125 H 12.967734 V 69 h -0.232031 v -1.538672 h -0.623438 v -0.20625 h 1.478906 z M 14.440781,69 h -0.689062 v -0.178125 h 0.228515 v -1.388672 h -0.228515 v -0.178125 h 0.689062 v 0.178125 h -0.228515 v 1.388672 h 0.228515 z m 1.639453,-1.538672 H 15.456797 V 69 h -0.232032 v -1.538672 h -0.623437 v -0.20625 h 1.478906 z m 1.548047,0.837891 q 0,0.189843 -0.04219,0.33164 -0.04102,0.140625 -0.135938,0.234375 -0.09023,0.08906 -0.210937,0.130078 -0.120704,0.04102 -0.28125,0.04102 -0.164063,0 -0.285938,-0.04336 -0.121875,-0.04336 -0.205078,-0.127735 -0.09492,-0.09609 -0.13711,-0.232031 -0.04102,-0.135937 -0.04102,-0.333984 v -1.044141 h 0.232031 v 1.055859 q 0,0.141797 0.01875,0.223829 0.01992,0.08203 0.06563,0.148828 0.05156,0.07617 0.139453,0.114843 0.08906,0.03867 0.213282,0.03867 0.12539,0 0.213281,-0.0375 0.08789,-0.03867 0.140625,-0.116015 0.0457,-0.0668 0.06445,-0.152344 0.01992,-0.08672 0.01992,-0.214453 v -1.061719 h 0.232031 z m 1.917187,-0.169922 q 0,0.23789 -0.104297,0.43125 -0.103125,0.193359 -0.27539,0.3 -0.119531,0.07383 -0.267188,0.10664 Q 18.752109,69 18.511875,69 H 18.07125 v -1.744922 h 0.435937 q 0.255469,0 0.405469,0.0375 0.151172,0.03633 0.255469,0.100781 0.178125,0.111328 0.277734,0.296485 0.09961,0.185156 0.09961,0.439453 z m -0.242578,-0.0035 q 0,-0.205078 -0.07148,-0.345703 -0.07148,-0.140625 -0.213281,-0.221484 Q 18.915,67.5 18.798984,67.477734 18.682968,67.454297 18.52125,67.454297 h -0.217969 v 1.346484 h 0.217969 q 0.167578,0 0.291796,-0.02461 0.125391,-0.02461 0.229688,-0.09141 0.130078,-0.0832 0.194531,-0.219141 0.06563,-0.135938 0.06563,-0.339844 z M 21.070078,69 h -1.149609 v -1.744922 h 1.149609 v 0.20625 H 20.1525 v 0.478125 h 0.917578 v 0.20625 H 20.1525 v 0.648047 h 0.917578 z"
     id="text5"
     style="font-size:2.4px;text-anchor:middle;fill:#ffffff"
     aria-label="LATITUDE" />
  <path
     d="M 9.8165621,84 H 8.6669526 v -1.744922 h 1.1496095 v 0.20625 H 8.8989839 v 0.478125 h 0.9175782 v 0.20625 H 8.8989839 v 0.648047 h 0.9175782 z m 1.4718749,0 h -1.103906 v -1.744922 h 0.232031 v 1.538672 h 0.871875 z m 1.381641,0 h -1.14961 v -1.744922 h 1.14961 v 0.20625 H 11.7525 v 0.478125 h 0.917578 v 0.20625 H 11.7525 v 0.648047 h 0.917578 z M 14.413828,82.255078 13.778671,84 H 13.469296 L 12.83414,82.255078 h 0.248438 l 0.547265,1.535156 0.547266,-1.535156 z M 15.984141,84 H 15.736875 L 15.565781,83.513672 H 14.811094 L 14.64,84 h -0.235547 l 0.635156,-1.744922 h 0.309375 z m -0.489844,-0.685547 -0.305859,-0.856641 -0.307032,0.856641 z m 1.858594,-0.853125 H 16.729453 V 84 h -0.232031 v -1.538672 h -0.623438 v -0.20625 h 1.478907 z M 18.2025,84 h -0.689063 v -0.178125 h 0.228516 V 82.433203 H 17.513437 V 82.255078 H 18.2025 v 0.178125 h -0.228516 v 1.388672 H 18.2025 Z m 1.695703,-1.544531 q 0.106641,0.117187 0.162891,0.287109 0.05742,0.169922 0.05742,0.385547 0,0.215625 -0.05859,0.386719 -0.05742,0.169922 -0.161719,0.283593 -0.107812,0.11836 -0.255468,0.178125 -0.146485,0.05977 -0.335157,0.05977 -0.183984,0 -0.335156,-0.06094 -0.15,-0.06094 -0.255469,-0.176954 -0.105468,-0.116015 -0.16289,-0.284765 -0.05625,-0.16875 -0.05625,-0.385547 0,-0.213281 0.05625,-0.382031 0.05625,-0.169922 0.164062,-0.290625 0.103125,-0.114844 0.255469,-0.175782 0.153516,-0.06094 0.333984,-0.06094 0.1875,0 0.336329,0.06211 0.15,0.06094 0.254296,0.17461 z m -0.02109,0.672656 q 0,-0.339844 -0.152344,-0.523828 -0.152344,-0.185156 -0.416016,-0.185156 -0.266015,0 -0.418359,0.185156 -0.151172,0.183984 -0.151172,0.523828 0,0.343359 0.154688,0.526172 0.154687,0.18164 0.414843,0.18164 0.260157,0 0.413672,-0.18164 0.154688,-0.182813 0.154688,-0.526172 z M 21.817734,84 H 21.530625 L 20.703281,82.439062 V 84 h -0.216797 v -1.744922 h 0.359766 l 0.754687,1.425 v -1.425 h 0.216797 z"
     id="text6"
     style="font-size:2.4px;text-anchor:middle;fill:#ffffff"
     aria-label="ELEVATION" />
  <path
     d="m 13.481601,97.782422 q 0,0.116015 -0.04101,0.215625 -0.03984,0.09844 -0.1125,0.171094 -0.09024,0.09023 -0.213282,0.135937 -0.123047,0.04453 -0.310547,0.04453 H 12.572226 V 99 h -0.232031 v -1.744922 h 0.473437 q 0.157032,0 0.266016,0.02695 0.108985,0.02578 0.19336,0.08203 0.09961,0.0668 0.153515,0.166407 0.05508,0.09961 0.05508,0.251953 z m -0.241406,0.0059 q 0,-0.09023 -0.03164,-0.157031 -0.03164,-0.0668 -0.09609,-0.108984 -0.05625,-0.03633 -0.128907,-0.05156 -0.07148,-0.01641 -0.18164,-0.01641 h -0.229688 v 0.697265 h 0.195703 q 0.140625,0 0.228516,-0.02461 0.08789,-0.02578 0.142969,-0.08086 0.05508,-0.05625 0.07734,-0.11836 0.02344,-0.06211 0.02344,-0.139453 z M 14.93707,99 h -1.149609 v -1.744922 h 1.149609 v 0.20625 h -0.917578 v 0.478125 h 0.917578 v 0.20625 h -0.917578 v 0.648047 h 0.917578 z m 1.74375,0 H 16.433554 L 16.262461,98.513672 H 15.507773 L 15.336679,99 h -0.235547 l 0.635157,-1.744922 h 0.309375 z m -0.489844,-0.685547 -0.305859,-0.856641 -0.307031,0.856641 z M 18.348398,99 h -0.301172 l -0.690234,-0.776953 -0.173438,0.185156 V 99 h -0.232031 v -1.744922 h 0.232031 v 0.910547 l 0.847266,-0.910547 h 0.28125 l -0.779297,0.820313 z"
     id="text7"
     style="font-size:2.4px;text-anchor:middle;fill:#ffffff"
     aria-label="PEAK" />
  <path
     d="m 13.660898,121.89453 q -0.05371,0.0234 -0.09766,0.0439 -0.04297,0.0205 -0.113281,0.043 -0.05957,0.0186 -0.129883,0.0312 -0.06934,0.0137 -0.15332,0.0137 -0.158204,0 -0.288086,-0.0439 -0.128907,-0.0449 -0.22461,-0.13965 -0.09375,-0.0928 -0.146484,-0.23535 -0.05273,-0.14355 -0.05273,-0.33301 0,-0.17968 0.05078,-0.32128 0.05078,-0.14161 0.146484,-0.23926 0.09277,-0.0947 0.223633,-0.14453 0.131836,-0.0498 0.291992,-0.0498 0.117188,0 0.233399,0.0283 0.117187,0.0283 0.259765,0.0996 v 0.22949 h -0.01465 q -0.120117,-0.10058 -0.238281,-0.14648 -0.118165,-0.0459 -0.25293,-0.0459 -0.110352,0 -0.199219,0.0361 -0.08789,0.0352 -0.157226,0.11035 -0.06738,0.0733 -0.105469,0.18555 -0.03711,0.11133 -0.03711,0.25781 0,0.15332 0.04102,0.26368 0.04199,0.11035 0.107422,0.17968 0.06836,0.0723 0.15918,0.10743 0.0918,0.0342 0.193359,0.0342 0.139648,0 0.261719,-0.0479 0.12207,-0.0478 0.228515,-0.14355 h 0.01367 z M 15.229258,122 h -0.19336 v -1.25293 l -0.404297,0.85254 H 14.516367 L 14.115,120.74707 V 122 h -0.180664 v -1.4541 h 0.263672 l 0.387695,0.80957 0.375,-0.80957 h 0.268555 z m 1.447265,-0.41504 q 0,0.085 -0.04004,0.16797 -0.03906,0.083 -0.110351,0.14062 -0.07813,0.0625 -0.182618,0.0977 -0.103515,0.0352 -0.25,0.0352 -0.157226,0 -0.283203,-0.0293 -0.125,-0.0293 -0.254883,-0.0869 v -0.24219 h 0.01367 q 0.110352,0.0918 0.254883,0.1416 0.144531,0.0498 0.271485,0.0498 0.179687,0 0.279296,-0.0674 0.100586,-0.0674 0.100586,-0.17969 0,-0.0967 -0.04785,-0.14257 -0.04687,-0.0459 -0.143555,-0.0713 -0.07324,-0.0195 -0.15918,-0.0322 -0.08496,-0.0127 -0.180664,-0.0322 -0.193359,-0.041 -0.287109,-0.13964 -0.09277,-0.0996 -0.09277,-0.25879 0,-0.18262 0.154296,-0.29883 0.154297,-0.11719 0.391602,-0.11719 0.15332,0 0.28125,0.0293 0.12793,0.0293 0.226562,0.0723 v 0.22852 h -0.01367 q -0.08301,-0.0703 -0.21875,-0.11621 -0.134766,-0.0469 -0.276368,-0.0469 -0.155273,0 -0.25,0.0645 -0.09375,0.0645 -0.09375,0.16601 0,0.0908 0.04687,0.14258 0.04687,0.0518 0.165039,0.0791 0.0625,0.0137 0.177735,0.0332 0.115234,0.0195 0.195312,0.04 0.16211,0.043 0.244141,0.12989 0.08203,0.0869 0.08203,0.24316 z m 1.345703,0 q 0,0.085 -0.04004,0.16797 -0.03906,0.083 -0.110351,0.14062 -0.07813,0.0625 -0.182617,0.0977 -0.103516,0.0352 -0.25,0.0352 -0.157227,0 -0.283204,-0.0293 -0.125,-0.0293 -0.254882,-0.0869 v -0.24219 h 0.01367 q 0.110352,0.0918 0.254883,0.1416 0.144532,0.0498 0.271485,0.0498 0.179687,0 0.279297,-0.0674 0.100585,-0.0674 0.100585,-0.17969 0,-0.0967 -0.04785,-0.14257 -0.04687,-0.0459 -0.143555,-0.0713 -0.07324,-0.0195 -0.159179,-0.0322 -0.08496,-0.0127 -0.180665,-0.0322 -0.193359,-0.041 -0.287109,-0.13964 -0.09277,-0.0996 -0.09277,-0.25879 0,-0.18262 0.154297,-0.29883 0.154296,-0.11719 0.391601,-0.11719 0.15332,0 0.28125,0.0293 0.12793,0.0293 0.226563,0.0723 v 0.22852 h -0.01367 q -0.08301,-0.0703 -0.21875,-0.11621 -0.134766,-0.0469 -0.276367,-0.0469 -0.155274,0 -0.25,0.0645 -0.09375,0.0645 -0.09375,0.16601 0,0.0908 0.04687,0.14258 0.04687,0.0518 0.165039,0.0791 0.0625,0.0137 0.177734,0.0332 0.115234,0.0195 0.195312,0.04 0.16211,0.043 0.244141,0.12989 0.08203,0.0869 0.08203,0.24316 z"
     id="text8"
     style="font-size:2px;text-anchor:middle;fill:#808080"
     aria-label="CMSS" />
</svg>
