<?xml version="1.0" encoding="UTF-8" standalone="no"?>
<svg
   width="30.48mm"
   height="128.5mm"
   viewBox="0 0 30.48 128.5"
   version="1.1"
   id="svg7"
   xmlns="http://www.w3.org/2000/svg"
   xmlns:svg="http://www.w3.org/2000/svg">
  <defs
     id="defs7" />
  <path
     id="rect1"
     style="fill:#202020"
     d="M 0,0 H 30.48 V 128.5 H 0 Z" />
  <!-- Trail display frame -->
  <path
     id="rect2"
     style="fill:none;stroke:#606060;stroke-width:0.4"
     d="M 4.9000001,17.700001 H 25.58 c 0.6648,0 1.2,0.5352 1.2,1.2 v 16.2 c 0,0.6648 -0.5352,1.2 -1.2,1.2 H 4.9000001 c -0.6648,0 -1.2000001,-0.5352 -1.2000001,-1.2 v -16.2 c 0,-0.6648 0.5352001,-1.2 1.2000001,-1.2 z" />
  <path
     d="m 13.776987,47 h -0.313721 l -0.60791,-0.722656 H 12.51478 V 47 h -0.241699 v -1.817627 h 0.509033 q 0.164795,0 0.274658,0.02197 0.109864,0.02075 0.197754,0.07568 0.09888,0.06226 0.153809,0.157471 0.05615,0.09399 0.05615,0.239258 0,0.196533 -0.09888,0.32959 -0.09888,0.131836 -0.272217,0.198974 z m -0.565185,-1.306152 q 0,-0.07813 -0.02808,-0.13794 -0.02686,-0.06104 -0.09033,-0.102539 -0.05249,-0.0354 -0.124511,-0.04883 -0.07202,-0.01465 -0.169678,-0.01465 H 12.51478 v 0.686035 h 0.244141 q 0.114746,0 0.200195,-0.01953 0.08545,-0.02075 0.145264,-0.07568 0.05493,-0.05127 0.08057,-0.117188 0.02686,-0.06714 0.02686,-0.169677 z M 15.444468,47 H 15.186899 L 15.008677,46.493408 H 14.222544 L 14.044321,47 H 13.79896 l 0.661621,-1.817627 h 0.322265 z m -0.510254,-0.714111 -0.318604,-0.892334 -0.319824,0.892334 z m 1.936035,-0.888672 H 16.220835 V 47 h -0.241699 v -1.602783 h -0.649415 v -0.214844 h 1.540528 z M 18.311899,47 h -1.19751 v -1.817627 h 1.19751 v 0.214844 h -0.95581 v 0.498047 h 0.95581 v 0.214843 h -0.95581 v 0.675049 h 0.95581 z"
     id="text2"
     style="font-size:2.5px;text-anchor:middle;fill:#ffffff"
     aria-label="RATE" />
  <path
     d="M 9.3431245,60.650002 H 8.2392182 V 58.90508 h 0.2320313 v 1.538672 h 0.871875 z M 10.8525,59.10547 q 0.10664,0.117188 0.16289,0.28711 0.05742,0.169921 0.05742,0.385546 0,0.215625 -0.05859,0.386719 -0.05742,0.169922 -0.161718,0.283594 -0.107813,0.118359 -0.255469,0.178125 -0.146485,0.05977 -0.335156,0.05977 -0.183985,0 -0.3351567,-0.06094 -0.15,-0.06094 -0.2554688,-0.176953 -0.1054688,-0.116016 -0.1628906,-0.284766 -0.05625,-0.16875 -0.05625,-0.385547 0,-0.213281 0.05625,-0.382031 0.05625,-0.169922 0.1640625,-0.290625 0.103125,-0.114844 0.2554687,-0.175781 0.1535159,-0.06094 0.3339849,-0.06094 0.1875,0 0.336328,0.06211 0.15,0.06094 0.254297,0.174609 z m -0.02109,0.672656 q 0,-0.339843 -0.152344,-0.523828 -0.152344,-0.185156 -0.416016,-0.185156 -0.2660152,0 -0.418359,0.185156 -0.1511719,0.183985 -0.1511719,0.523828 0,0.34336 0.1546875,0.526172 0.1546874,0.181641 0.4148434,0.181641 0.260157,0 0.413672,-0.181641 0.154688,-0.182812 0.154688,-0.526172 z m 1.940625,0.871876 h -0.28711 l -0.827343,-1.560938 v 1.560938 H 11.440781 V 58.90508 h 0.359765 l 0.754688,1.425 v -1.425 h 0.216797 z m 1.919531,-0.128907 q -0.142969,0.06562 -0.312891,0.114844 -0.16875,0.04805 -0.326953,0.04805 -0.203906,0 -0.373828,-0.05625 -0.169922,-0.05625 -0.289453,-0.16875 -0.120703,-0.113672 -0.186328,-0.283594 -0.06563,-0.171094 -0.06563,-0.399609 0,-0.41836 0.24375,-0.659766 0.244922,-0.242578 0.671484,-0.242578 0.148828,0 0.303516,0.03633 0.155859,0.03516 0.335156,0.120703 v 0.275391 h -0.02109 q -0.03633,-0.02813 -0.105469,-0.07383 -0.06914,-0.0457 -0.135937,-0.07617 -0.08086,-0.03633 -0.183984,-0.05977 -0.101954,-0.02461 -0.232032,-0.02461 -0.292968,0 -0.464062,0.188672 -0.169922,0.1875 -0.169922,0.508593 0,0.338672 0.178125,0.527344 0.178125,0.1875 0.485156,0.1875 0.1125,0 0.223828,-0.02227 0.1125,-0.02227 0.196875,-0.05742 v -0.427735 h -0.467578 v -0.203906 h 0.697266 z m 1.020704,0.128907 h -0.689063 v -0.178125 h 0.228516 V 59.083205 H 15.023203 V 58.90508 h 0.689063 v 0.178125 H 15.48375 v 1.388672 h 0.228516 z m 1.639453,-1.538672 h -0.623438 v 1.538672 H 16.49625 V 59.11133 h -0.623438 v -0.20625 h 1.478907 z m 1.548046,0.83789 q 0,0.189844 -0.04219,0.331641 -0.04102,0.140625 -0.135938,0.234375 -0.09023,0.08906 -0.210937,0.130078 -0.120703,0.04102 -0.28125,0.04102 -0.164063,0 -0.285938,-0.04336 -0.121875,-0.04336 -0.205078,-0.127734 -0.09492,-0.09609 -0.137109,-0.232031 -0.04102,-0.135938 -0.04102,-0.333985 v -1.04414 h 0.232031 v 1.055859 q 0,0.141797 0.01875,0.223828 0.01992,0.08203 0.06563,0.148828 0.05156,0.07617 0.139454,0.114844 0.08906,0.03867 0.213281,0.03867 0.12539,0 0.213281,-0.0375 0.08789,-0.03867 0.140625,-0.116016 0.0457,-0.0668 0.06445,-0.152343 0.01992,-0.08672 0.01992,-0.214454 V 58.90508 h 0.232031 z m 1.917188,-0.169922 q 0,0.237891 -0.104297,0.43125 -0.103125,0.19336 -0.275391,0.3 -0.119531,0.07383 -0.267187,0.106641 -0.146485,0.03281 -0.386719,0.03281 H 19.342734 V 58.90508 h 0.435937 q 0.255469,0 0.405469,0.0375 0.151172,0.03633 0.255469,0.100781 0.178125,0.111328 0.277734,0.296484 0.09961,0.185156 0.09961,0.439453 z m -0.242578,-0.0035 q 0,-0.205078 -0.07148,-0.345703 -0.07148,-0.140625 -0.213281,-0.221485 -0.103125,-0.05859 -0.219141,-0.08086 -0.116015,-0.02344 -0.277734,-0.02344 h -0.217969 v 1.346485 h 0.217969 q 0.167578,0 0.291797,-0.02461 0.12539,-0.02461 0.229687,-0.09141 0.130078,-0.0832 0.194532,-0.21914 0.06563,-0.135938 0.06563,-0.339844 z m 1.767188,0.874219 h -1.14961 V 58.90508 h 1.14961 v 0.20625 h -0.917579 v 0.478125 h 0.917579 v 0.20625 h -0.917579 v 0.648047 h 0.917579 z"
     id="text3"
     style="font-size:2.4px;text-anchor:middle;fill:#ffffff"
     aria-label="LONGITUDE" />
  <path
     d="M 10.614609,75.650002 H 9.5107027 V 73.90508 h 0.2320312 v 1.538672 h 0.8718751 z m 1.607812,0 h -0.247265 l -0.171094,-0.486329 h -0.754687 l -0.171094,0.486329 H 10.642734 L 11.27789,73.90508 h 0.309375 z m -0.489843,-0.685547 -0.30586,-0.856641 -0.307031,0.856641 z m 1.858593,-0.853125 h -0.623437 v 1.538672 H 12.735703 V 74.11133 h -0.623438 v -0.20625 h 1.478906 z m 0.84961,1.538672 h -0.689062 v -0.178125 h 0.228515 V 74.083205 H 13.751719 V 73.90508 h 0.689062 v 0.178125 h -0.228515 v 1.388672 h 0.228515 z m 1.639453,-1.538672 h -0.623437 v 1.538672 H 15.224765 V 74.11133 h -0.623437 v -0.20625 h 1.478906 z m 1.548047,0.83789 q 0,0.189844 -0.04219,0.331641 -0.04102,0.140625 -0.135938,0.234375 -0.09023,0.08906 -0.210937,0.130078 -0.120704,0.04102 -0.28125,0.04102 -0.164063,0 -0.285938,-0.04336 -0.121875,-0.04336 -0.205078,-0.127734 -0.09492,-0.09609 -0.13711,-0.232031 -0.04102,-0.135938 -0.04102,-0.333985 v -1.04414 h 0.232031 v 1.055859 q 0,0.141797 0.01875,0.223828 0.01992,0.08203 0.06563,0.148828 0.05156,0.07617 0.139453,0.114844 0.08906,0.03867 0.213282,0.03867 0.12539,0 0.213281,-0.0375 0.08789,-0.03867 0.140625,-0.116016 0.0457,-0.0668 0.06445,-0.152343 0.01992,-0.08672 0.01992,-0.214454 V 73.90508 h 0.232031 z m 1.917187,-0.169922 q 0,0.237891 -0.104297,0.43125 -0.103125,0.19336 -0.27539,0.3 -0.119531,0.07383 -0.267188,0.106641 -0.146484,0.03281 -0.386718,0.03281 H 18.07125 V 73.90508 h 0.435937 q 0.255469,0 0.405469,0.0375 0.151172,0.03633 0.255469,0.100781 0.178125,0.111328 0.277734,0.296484 0.09961,0.185156 0.09961,0.439453 z m -0.242578,-0.0035 q 0,-0.205078 -0.07148,-0.345703 -0.07148,-0.140625 -0.213281,-0.221485 -0.103125,-0.05859 -0.219141,-0.08086 -0.116016,-0.02344 -0.277734,-0.02344 h -0.217969 v 1.346485 h 0.217969 q 0.167578,0 0.291796,-0.02461 0.125391,-0.02461 0.229688,-0.09141 0.130078,-0.0832 0.194531,-0.21914 0.06563,-0.135938 0.06563,-0.339844 z m 1.767188,0.874219 H 19.920469 V 73.90508 h 1.149609 v 0.20625 H 20.1525 v 0.478125 h 0.917578 v 0.20625 H 20.1525 v 0.648047 h 0.917578 z"
     id="text4"
     style="font-size:2.4px;text-anchor:middle;fill:#ffffff"
     aria-label="LATITUDE" />
  <path
     d="M 9.8165621,90.650002 H 8.6669526 V 88.90508 h 1.1496095 v 0.20625 H 8.8989839 v 0.478125 h 0.9175782 v 0.20625 H 8.8989839 v 0.648047 h 0.9175782 z m 1.4718749,0 H 10.184531 V 88.90508 h 0.232031 v 1.538672 h 0.871875 z m 1.381641,0 h -1.14961 V 88.90508 h 1.14961 v 0.20625 H 11.7525 v 0.478125 h 0.917578 v 0.20625 H 11.7525 v 0.648047 h 0.917578 z m 1.74375,-1.744922 -0.635157,1.744922 H 13.469296 L 12.83414,88.90508 h 0.248438 l 0.547265,1.535156 0.547266,-1.535156 z m 1.570313,1.744922 H 15.736875 L 15.565781,90.163673 H 14.811094 L 14.64,90.650002 h -0.235547 l 0.635156,-1.744922 h 0.309375 z m -0.489844,-0.685547 -0.305859,-0.856641 -0.307032,0.856641 z m 1.858594,-0.853125 h -0.623438 v 1.538672 H 16.497422 V 89.11133 h -0.623438 v -0.20625 h 1.478907 z m 0.849609,1.538672 h -0.689063 v -0.178125 h 0.228516 V 89.083205 H 17.513437 V 88.90508 H 18.2025 v 0.178125 h -0.228516 v 1.388672 H 18.2025 Z m 1.695703,-1.544532 q 0.106641,0.117188 0.162891,0.28711 0.05742,0.169921 0.05742,0.385546 0,0.215625 -0.05859,0.386719 -0.05742,0.169922 -0.161719,0.283594 -0.107812,0.118359 -0.255468,0.178125 -0.146485,0.05977 -0.335157,0.05977 -0.183984,0 -0.335156,-0.06094 -0.15,-0.06094 -0.255469,-0.176953 -0.105468,-0.116016 -0.16289,-0.284766 -0.05625,-0.16875 -0.05625,-0.385547 0,-0.213281 0.05625,-0.382031 0.05625,-0.169922 0.164062,-0.290625 0.103125,-0.114844 0.255469,-0.175781 0.153516,-0.06094 0.333984,-0.06094 0.1875,0 0.336329,0.06211 0.15,0.06094 0.254296,0.174609 z m -0.02109,0.672656 q 0,-0.339843 -0.152344,-0.523828 -0.152344,-0.185156 -0.416016,-0.185156 -0.266015,0 -0.418359,0.185156 -0.151172,0.183985 -0.151172,0.523828 0,0.34336 0.154688,0.526172 0.154687,0.181641 0.414843,0.181641 0.260157,0 0.413672,-0.181641 0.154688,-0.182812 0.154688,-0.526172 z m 1.940624,0.871876 h -0.287109 l -0.827344,-1.560938 v 1.560938 H 20.486484 V 88.90508 h 0.359766 l 0.754687,1.425 v -1.425 h 0.216797 z"
     id="text5"
     style="font-size:2.4px;text-anchor:middle;fill:#ffffff"
     aria-label="ELEVATION" />
  <path
     d="m 13.481601,104.43242 q 0,0.11602 -0.04101,0.21563 -0.03984,0.0984 -0.1125,0.17109 -0.09024,0.0902 -0.213282,0.13594 -0.123047,0.0445 -0.310547,0.0445 H 12.572226 V 105.65 h -0.232031 v -1.74492 h 0.473437 q 0.157032,0 0.266016,0.0269 0.108985,0.0258 0.19336,0.082 0.09961,0.0668 0.153515,0.16641 0.05508,0.0996 0.05508,0.25195 z m -0.241406,0.006 q 0,-0.0902 -0.03164,-0.15703 -0.03164,-0.0668 -0.09609,-0.10898 -0.05625,-0.0363 -0.128907,-0.0516 -0.07148,-0.0164 -0.18164,-0.0164 h -0.229688 v 0.69726 h 0.195703 q 0.140625,0 0.228516,-0.0246 0.08789,-0.0258 0.142969,-0.0808 0.05508,-0.0563 0.07734,-0.11836 0.02344,-0.0621 0.02344,-0.13946 z M 14.93707,105.65 h -1.149609 v -1.74492 h 1.149609 v 0.20625 h -0.917578 v 0.47812 h 0.917578 v 0.20625 h -0.917578 v 0.64805 h 0.917578 z m 1.74375,0 h -0.247266 l -0.171093,-0.48633 H 15.507773 L 15.336679,105.65 h -0.235547 l 0.635157,-1.74492 h 0.309375 z m -0.489844,-0.68555 -0.305859,-0.85664 -0.307031,0.85664 z m 2.157422,0.68555 h -0.301172 l -0.690234,-0.77695 -0.173438,0.18515 v 0.5918 h -0.232031 v -1.74492 h 0.232031 v 0.91055 l 0.847266,-0.91055 h 0.28125 l -0.779297,0.82031 z"
     id="text6"
     style="font-size:2.4px;text-anchor:middle;fill:#ffffff"
     aria-label="PEAK" />
  <path
     d="m 13.660898,121.89453 q -0.05371,0.0234 -0.09766,0.0439 -0.04297,0.0205 -0.113281,0.043 -0.05957,0.0186 -0.129883,0.0312 -0.06934,0.0137 -0.15332,0.0137 -0.158204,0 -0.288086,-0.0439 -0.128907,-0.0449 -0.22461,-0.13965 -0.09375,-0.0928 -0.146484,-0.23535 -0.05273,-0.14355 -0.05273,-0.33301 0,-0.17968 0.05078,-0.32128 0.05078,-0.14161 0.146484,-0.23926 0.09277,-0.0947 0.223633,-0.14453 0.131836,-0.0498 0.291992,-0.0498 0.117188,0 0.233399,0.0283 0.117187,0.0283 0.259765,0.0996 v 0.22949 h -0.01465 q -0.120117,-0.10058 -0.238281,-0.14648 -0.118165,-0.0459 -0.25293,-0.0459 -0.110352,0 -0.199219,0.0361 -0.08789,0.0352 -0.157226,0.11035 -0.06738,0.0733 -0.105469,0.18555 -0.03711,0.11133 -0.03711,0.25781 0,0.15332 0.04102,0.26368 0.04199,0.11035 0.107422,0.17968 0.06836,0.0723 0.15918,0.10743 0.0918,0.0342 0.193359,0.0342 0.139648,0 0.261719,-0.0479 0.12207,-0.0478 0.228515,-0.14355 h 0.01367 z M 15.229258,122 h -0.19336 v -1.25293 l -0.404297,0.85254 H 14.516367 L 14.115,120.74707 V 122 h -0.180664 v -1.4541 h 0.263672 l 0.387695,0.80957 0.375,-0.80957 h 0.268555 z m 1.447265,-0.41504 q 0,0.085 -0.04004,0.16797 -0.03906,0.083 -0.110351,0.14062 -0.07813,0.0625 -0.182618,0.0977 -0.103515,0.0352 -0.25,0.0352 -0.157226,0 -0.283203,-0.0293 -0.125,-0.0293 -0.254883,-0.0869 v -0.24219 h 0.01367 q 0.110352,0.0918 0.254883,0.1416 0.144531,0.0498 0.271485,0.0498 0.179687,0 0.279296,-0.0674 0.100586,-0.0674 0.100586,-0.17969 0,-0.0967 -0.04785,-0.14257 -0.04687,-0.0459 -0.143555,-0.0713 -0.07324,-0.0195 -0.15918,-0.0322 -0.08496,-0.0127 -0.180664,-0.0322 -0.193359,-0.041 -0.287109,-0.13964 -0.09277,-0.0996 -0.09277,-0.25879 0,-0.18262 0.154296,-0.29883 0.154297,-0.11719 0.391602,-0.11719 0.15332,0 0.28125,0.0293 0.12793,0.0293 0.226562,0.0723 v 0.22852 h -0.01367 q -0.08301,-0.0703 -0.21875,-0.11621 -0.134766,-0.0469 -0.276368,-0.0469 -0.155273,0 -0.25,0.0645 -0.09375,0.0645 -0.09375,0.16601 0,0.0908 0.04687,0.14258 0.04687,0.0518 0.165039,0.0791 0.0625,0.0137 0.177735,0.0332 0.115234,0.0195 0.195312,0.04 0.16211,0.043 0.244141,0.12989 0.08203,0.0869 0.08203,0.24316 z m 1.345703,0 q 0,0.085 -0.04004,0.16797 -0.03906,0.083 -0.110351,0.14062 -0.07813,0.0625 -0.182617,0.0977 -0.103516,0.0352 -0.25,0.0352 -0.157227,0 -0.283204,-0.0293 -0.125,-0.0293 -0.254882,-0.0869 v -0.24219 h 0.01367 q 0.110352,0.0918 0.254883,0.1416 0.144532,0.0498 0.271485,0.0498 0.179687,0 0.279297,-0.0674 0.100585,-0.0674 0.100585,-0.17969 0,-0.0967 -0.04785,-0.14257 -0.04687,-0.0459 -0.143555,-0.0713 -0.07324,-0.0195 -0.159179,-0.0322 -0.08496,-0.0127 -0.180665,-0.0322 -0.193359,-0.041 -0.287109,-0.13964 -0.09277,-0.0996 -0.09277,-0.25879 0,-0.18262 0.154297,-0.29883 0.154296,-0.11719 0.391601,-0.11719 0.15332,0 0.28125,0.0293 0.12793,0.0293 0.226563,0.0723 v 0.22852 h -0.01367 q -0.08301,-0.0703 -0.21875,-0.11621 -0.134766,-0.0469 -0.276367,-0.0469 -0.155274,0 -0.25,0.0645 -0.09375,0.0645 -0.09375,0.16601 0,0.0908 0.04687,0.14258 0.04687,0.0518 0.165039,0.0791 0.0625,0.0137 0.177734,0.0332 0.115234,0.0195 0.195312,0.04 0.16211,0.043 0.244141,0.12989 0.08203,0.0869 0.08203,0.24316 z"
     id="text7"
     style="font-size:2px;text-anchor:middle;fill:#808080"
     aria-label="CMSS" />
</svg>
